<?xml version="1.0" standalone="no"?>
<!DOCTYPE svg PUBLIC "-//W3C//DTD SVG 20010904//EN"
 "http://www.w3.org/TR/2001/REC-SVG-20010904/DTD/svg10.dtd">
<svg version="1.0" xmlns="http://www.w3.org/2000/svg"
 width="260.000000pt" height="260.000000pt" viewBox="0 0 260.000000 260.000000"
 preserveAspectRatio="xMidYMid meet">
<metadata>
Created by potrace 1.11, written by Peter Selinger 2001-2013
</metadata>
<g transform="translate(0.000000,260.000000) scale(0.100000,-0.100000)"
fill="#000000" stroke="none">
<path d="M1034 2206 c-247 -47 -444 -173 -573 -366 -125 -187 -166 -392 -123
-604 84 -403 470 -688 897 -662 327 19 604 201 736 481 59 126 73 191 73 340
0 149 -14 214 -73 340 -107 227 -308 388 -570 456 -99 26 -273 33 -367 15z
m174 -486 l3 -325 210 -169 c186 -149 210 -172 207 -195 -2 -19 -9 -27 -28
-29 -20 -2 -72 36 -241 172 -200 162 -217 178 -223 213 -11 67 -7 623 5 644 7
14 19 19 37 17 l27 -3 3 -325z"/>
</g>
</svg>
